<svg width="25" height="24" viewBox="0 0 25 24" fill="none" xmlns="http://www.w3.org/2000/svg">
<path fill-rule="evenodd" clip-rule="evenodd" d="M13.75 2.75H9.5C7.07397 2.75 5.57086 3.2398 4.65533 4.15533C3.7398 5.07086 3.25 6.57397 3.25 9V15C3.25 17.426 3.7398 18.9291 4.65533 19.8447C5.57086 20.7602 7.07397 21.25 9.5 21.25H15.5C17.926 21.25 19.4291 20.7602 20.3447 19.8447C21.2602 18.9291 21.75 17.426 21.75 15V10.75H18.5C16.9585 10.75 15.6921 10.5028 14.8447 9.65535C13.9972 8.80793 13.75 7.54157 13.75 6.00002V2.75ZM23.2493 9.96742C23.2409 9.77157 23.1575 9.59517 23.0269 9.4663L15.0338 1.47312C14.8978 1.33537 14.7089 1.25 14.5 1.25H14.4999H14.4998H9.5C6.92603 1.25 4.92914 1.7602 3.59467 3.09467C2.2602 4.42914 1.75 6.42603 1.75 9V15C1.75 17.574 2.2602 19.5709 3.59467 20.9053C4.92914 22.2398 6.92603 22.75 9.5 22.75H15.5C18.074 22.75 20.0709 22.2398 21.4053 20.9053C22.7398 19.5709 23.25 17.574 23.25 15V10.0058V10C23.25 9.98908 23.2498 9.97822 23.2493 9.96742ZM15.25 6.00002V3.81068L20.6893 9.25002H18.5C17.0415 9.25002 16.3079 8.99727 15.9053 8.59469C15.5028 8.19211 15.25 7.45847 15.25 6.00002ZM6.75 13C6.75 12.5858 7.08579 12.25 7.5 12.25H13.5C13.9142 12.25 14.25 12.5858 14.25 13C14.25 13.4142 13.9142 13.75 13.5 13.75H7.5C7.08579 13.75 6.75 13.4142 6.75 13ZM7.5 16.25C7.08579 16.25 6.75 16.5858 6.75 17C6.75 17.4142 7.08579 17.75 7.5 17.75H11.5C11.9142 17.75 12.25 17.4142 12.25 17C12.25 16.5858 11.9142 16.25 11.5 16.25H7.5Z" fill="#3C3C49"/>
</svg>
