<svg width="25" height="24" viewBox="0 0 25 24" fill="none" xmlns="http://www.w3.org/2000/svg">
<path fill-rule="evenodd" clip-rule="evenodd" d="M5.51878 8.91016C5.51878 5.04787 8.6565 1.91016 12.5188 1.91016C16.3711 1.91016 19.5188 5.05787 19.5188 8.91016V11.8002C19.5188 11.985 19.562 12.276 19.6507 12.5994C19.7378 12.9172 19.8479 13.1899 19.941 13.3535L21.0863 15.2557C22.0737 16.9013 21.2852 19.0461 19.4642 19.6491C18.4145 19.9997 17.3456 20.2688 16.2664 20.4564C15.6976 21.9742 14.2303 23.0601 12.5187 23.0601C11.4221 23.0601 10.4109 22.6065 9.69161 21.8872C9.29321 21.4888 8.97633 21.0008 8.77287 20.4584C7.68916 20.2707 6.61581 20.0007 5.56189 19.6486L5.55818 19.6474C4.65164 19.3405 3.95846 18.7004 3.64726 17.8599C3.33561 17.0183 3.44555 16.0796 3.94193 15.2546L5.08983 13.3481C5.09014 13.3476 5.09045 13.3471 5.09075 13.3465C5.18518 13.1876 5.29763 12.9165 5.38647 12.5964C5.47568 12.275 5.51878 11.9847 5.51878 11.8002V8.91016ZM11.461 20.7548C11.7699 20.9476 12.1357 21.0601 12.5187 21.0601C12.9059 21.0601 13.2687 20.9478 13.5762 20.7544C12.8715 20.7886 12.1656 20.7887 11.461 20.7548ZM12.5188 3.91016C9.76107 3.91016 7.51878 6.15244 7.51878 8.91016V11.8002C7.51878 12.2256 7.43188 12.7053 7.31359 13.1314C7.19522 13.5578 7.02312 14.0109 6.80773 14.3722L6.80549 14.376L5.65563 16.2857C5.65558 16.2858 5.65568 16.2856 5.65563 16.2857C5.44217 16.6406 5.44197 16.9471 5.52281 17.1654C5.60398 17.3846 5.80534 17.6191 6.19766 17.7524C10.3014 19.123 14.7282 19.1228 18.8319 17.7517L18.8349 17.7507C19.4326 17.5531 19.7034 16.8392 19.3717 16.2854C19.3716 16.2852 19.3719 16.2857 19.3717 16.2854L18.2173 14.368L18.2126 14.3599C18.0065 14.0026 17.8385 13.5535 17.7219 13.1284C17.6056 12.7044 17.5188 12.2253 17.5188 11.8002V8.91016C17.5188 6.16244 15.2665 3.91016 12.5188 3.91016Z" fill="#3C3C49"/>
</svg>
