<svg width="25" height="24" viewBox="0 0 25 24" fill="none" xmlns="http://www.w3.org/2000/svg">
<path fill-rule="evenodd" clip-rule="evenodd" d="M4.09586 4.59586C3.74744 4.94428 3.5 5.65843 3.5 7.44V13H21.5V7.44C21.5 5.65833 21.2525 4.94481 20.9036 4.59652C20.5539 4.24755 19.837 4 18.05 4H6.94C5.15843 4 4.44428 4.24744 4.09586 4.59586ZM23.4992 13.9599C23.4997 13.8969 23.5 13.8336 23.5 13.77V7.44C23.5 5.67167 23.3025 4.16519 22.3164 3.18098C21.3311 2.19745 19.8229 2 18.05 2H6.94C5.17157 2 3.66572 2.19756 2.68164 3.18164C1.69756 4.16572 1.5 5.67157 1.5 7.44V13.78C1.5 13.8408 1.50023 13.9014 1.50073 13.9616C1.50024 13.9743 1.5 13.9871 1.5 14C1.5 14.0201 1.50059 14.0401 1.50176 14.0599C1.52323 15.7068 1.74978 17.107 2.68231 18.0378C3.66728 19.0209 5.17376 19.2149 6.94145 19.21H18.06C19.8265 19.21 21.3331 19.0155 22.3177 18.0328C23.2481 17.1041 23.4757 15.7081 23.4981 14.0625C23.4994 14.0418 23.5 14.021 23.5 14C23.5 13.9866 23.4997 13.9732 23.4992 13.9599ZM21.4484 15H3.5509C3.64049 15.9193 3.84114 16.3687 4.09519 16.6222C4.44247 16.9689 5.15547 17.215 6.93718 17.21L6.94 17.21L18.06 17.21C19.8435 17.21 20.5569 16.9645 20.9048 16.6172C21.1581 16.3644 21.3585 15.9168 21.4484 15ZM7 22C7 21.4477 7.44772 21 8 21H17C17.5523 21 18 21.4477 18 22C18 22.5523 17.5523 23 17 23H8C7.44772 23 7 22.5523 7 22Z" fill="#3C3C49"/>
</svg>
